# xmcd
#
# Track frame offsets:
#	150
#	13760
#	47605
#	65608
#	78433
#	108893
#	127028
#	159185
#	173373
#	193268
#
# Disc length: 2978 seconds
#
# Revision: 0
# Processed by: cddbd v1.4PL0 Copyright (c) Steve Scherf et al.
# Submitted via: dBpowerAMP V4.0
#
DISCID=780ba00a
DTITLE=Garibaldi - Donde quedo la bolita
DYEAR=1900
DGENRE=pop
TTITLE0=Gariboom
TTITLE1=Tropi Mix
TTITLE2=Banana
TTITLE3=la Gallina y Tu
TTITLE4=Sangrita
TTITLE5=Mujer Calculadora
TTITLE6=chachacha Mix
TTITLE7=Que te la pongo
TTITLE8=Garilambada
TTITLE9=Dame un beso
EXTD=
EXTT0=
EXTT1=
EXTT2=
EXTT3=
EXTT4=
EXTT5=
EXTT6=
EXTT7=
EXTT8=
EXTT9=
PLAYORDER=
